{"title":"L.Age.D.Or.1930.720p.BluRay.x264-CiNEFiLE","uid":6455364,"size":2346716211,"categoryP":"video","categoryS":"hd___movies","magnet":"?xt=urn:btih:7d711e84f3517cebfdec614f3a0685c838b68cb4&amp;dn=L.Age.D.Or.1930.720p.BluRay.x264-CiNEFiLE&amp;tr=udp%3A%2F%2Ftracker.openbittorrent.com%3A80&amp;tr=udp%3A%2F%2Fopen.demonii.com%3A1337&amp;tr=udp%3A%2F%2Ftracker.coppersurfer.tk%3A6969&amp;tr=udp%3A%2F%2Fexodus.desync.com%3A6969","seeders":8,"leechers":1,"uploader":"mfccorrea","files":1,"time":1307564758,"description":"A party of dignitaries arrive on the shore of an island to pay homage to some dead heroes but are outraged to see a couple making love on the beach.  The man is dragged away by police, but he manages to persuade them to release him for services he has rendered to the state.  The man and the women subsequently meet up at a party, but their attempts to get together are constantly frustrated by their family, guests and other distractions... \n\nComplete name : L.Age.D.Or.1930.720p.BluRay.x264-CiNEFiLE.mkv\nFormat : Matroska\nFile size : 2.19 GiB\nDuration : 1h 2mn\nOverall bit rate : 4 996 Kbps\nEncoded date : UTC 2011-06-07 07:40:12\nWriting application : mkvmerge v4.4.0 ('Die Wiederkehr') built on Oct 31 2010 21:52:48\nWriting library : libebml v1.0.0 + libmatroska v1.0.0\n\nVideo\nFormat : AVC\nFormat/Info : Advanced Video Codec\nFormat profile : &lt;a class=&quot;__cf_email__&quot; href=&quot;/cdn-cgi/l/email-protection&quot; data-cfemail=&quot;652d0c020d2529564b54&quot;&gt;[email&amp;#160;protected]&lt;/a&gt;&lt;script cf-hash='f9e31' type=&quot;text/javascript&quot;&gt;\n/* &lt;![CDATA[ */!function(){try{var t=&quot;currentScript&quot;in document?document.currentScript:function(){for(var t=document.getElementsByTagName(&quot;script&quot;),e=t.length;e--;)if(t[e].getAttribute(&quot;cf-hash&quot;))return t[e]}();if(t&amp;&amp;t.previousSibling){var e,r,n,i,c=t.previousSibling,a=c.getAttribute(&quot;data-cfemail&quot;);if(a){for(e=&quot;&quot;,r=parseInt(a.substr(0,2),16),n=2;a.length-n;n+=2)i=parseInt(a.substr(n,2),16)^r,e+=String.fromCharCode(i);e=document.createTextNode(e),c.parentNode.replaceChild(e,c)}}}catch(u){}}();/* ]]&gt; */&lt;/script&gt;\nFormat settings, CABAC : Yes\nFormat settings, ReFrames : 5 frames\nFormat settings, GOP : M=1, N=16\nMuxing mode : Header stripping\nCodec ID : V_MPEG4/ISO/AVC\nDuration : 1h 2mn\nBit rate : 4 739 Kbps\nWidth : 848 pixels\nHeight : 720 pixels\nDisplay aspect ratio : 1.178\nFrame rate : 23.976 fps\nColor space : YUV\nChroma subsampling : 4:2:0\nBit depth : 8 bits\nScan type : Progressive\nBits/(Pixel*Frame) : 0.324\nStream size : 2.03 GiB (93%)\nWriting library : x264 core 115 r1995 c1e60b9\n\nAudio\nFormat : AC-3\nFormat/Info : Audio Coding 3\nMode extension : CM (complete main)\nMuxing mode : Header stripping\nCodec ID : A_AC3\nDuration : 1h 2mn\nBit rate mode : Constant\nBit rate : 256 Kbps\nChannel(s) : 2 channels\nChannel positions : Front: L R\nSampling rate : 48.0 KHz\nBit depth : 16 bits\nCompression mode : Lossy\nStream size : 115 MiB (5%)\nLanguage : French\n\nText\nFormat : UTF-8\nCodec ID : S_TEXT/UTF8\nCodec ID/Info : UTF-8 Plain Text\nLanguage : English\n &lt;a href=&quot;\nhttp://www.imdb.com/title/tt0021577/&quot; rel=&quot;nofollow&quot; target=&quot;_NEW&quot;&gt;\nhttp://www.imdb.com/title/tt0021577/&lt;/a&gt;\n\nFrench audio; English subtitles (muxed in mkv)","torrent":{"xt":"urn:btih:7d711e84f3517cebfdec614f3a0685c838b68cb4","amp;dn":"L.Age.D.Or.1930.720p.BluRay.x264-CiNEFiLE","amp;tr":["udp%3A%2F%2Ftracker.openbittorrent.com%3A80","udp%3A%2F%2Fopen.demonii.com%3A1337","udp%3A%2F%2Ftracker.coppersurfer.tk%3A6969","udp%3A%2F%2Fexodus.desync.com%3A6969"],"infoHash":"7d711e84f3517cebfdec614f3a0685c838b68cb4","infoHashBuffer":{"type":"Buffer","data":[125,113,30,132,243,81,124,235,253,236,97,79,58,6,133,200,56,182,140,180]},"announce":[],"urlList":[]}}